<?xml version="1.0" encoding="UTF-8" standalone="no"?>
<!-- Created with Inkscape (http://www.inkscape.org/) -->

<svg
   width="512"
   height="512"
   version="1.1"
   viewBox="0 0 135.47 135.47"
   id="svg28"
   xmlns="http://www.w3.org/2000/svg"
   xmlns:svg="http://www.w3.org/2000/svg">
  <defs
     id="defs32" />
  <path
     d="m40.743 0.30259h70.496a9.6973 9.6973 0 0 1 9.6972 9.6973v104.55a6.9733 6.9733 0 0 1-6.9733 6.9733h-70.496a9.6973 9.6973 0 0 1-9.6973-9.6972v-104.55a6.9733 6.9733 0 0 1 6.9733-6.9733z"
     color="#000000"
     fill="#198754"
     stroke-width=".52917"
     style="-inkscape-stroke:none"
     id="path2" />
  <path
     d="m40.744 0.037109c-3.9942 1.8e-7 -7.2383 3.244-7.2383 7.2383v104.54c1e-6 5.4986 4.4623 9.9629 9.9609 9.9629h70.496c3.9942 1e-5 7.2383-3.244 7.2383-7.2383v-104.54c0-5.4986-4.4643-9.9629-9.9629-9.9629zm0 0.5293h70.494c5.2126 5.4e-7 9.4336 4.2209 9.4336 9.4336v104.54c0 3.7083-3.0007 6.709-6.709 6.709h-70.496c-5.2126 0-9.4316-4.221-9.4316-9.4336v-104.54c0-3.7083 3.0007-6.709 6.709-6.709z"
     color="#000000"
     style="-inkscape-stroke:none"
     id="path4" />
  <path
     d="m126.64 52.496-47.621 8.3965a26.356 26.356 0 0 0-21.379 30.531l68.613 389.13a36.651 36.651 0 0 0 42.459 29.73l262.39-46.268a26.356 26.356 0 0 0 15.053-8.5234c-4.3958 3.0135-9.7018 4.791-15.428 4.791h-266.44c-20.782 0-37.646-16.872-37.646-37.654v-370.13z"
     color="#000000"
     fill="#198754"
     stroke-width="2"
     style="-inkscape-stroke:none"
     id="path6"
     transform="scale(.26458)" />
  <path
     transform="scale(.26458)"
     d="m126.64 51.477-47.791 8.4277c-14.867 2.6214-24.813 16.824-22.191 31.691l68.613 389.13c3.6088 20.466 23.149 34.156 43.615 30.547l262.39-46.268c7.8748-1.3885 14.343-6.0436 18.32-12.309-1.0258 0.97955-2.1308 1.874-3.2988 2.6836-0.24709 0.17184-0.50294 0.32448-0.75586 0.48828-0.84769 0.54736-1.7164 1.0652-2.625 1.5195-3.317 2.8168-7.3869 4.8355-11.986 5.6465l-262.39 46.268c-19.402 3.4211-37.876-9.5199-41.297-28.922l-68.613-389.13c-2.4338-13.803 6.7658-26.939 20.568-29.373l47.443-8.3652v-2.0332z"
     color="#000000"
     stroke-width="3.7795"
     style="-inkscape-stroke:none"
     id="path8" />
  <path
     transform="scale(.26458)"
     d="m126.5 65.59-37.324 6.5801c-13.529 2.3855-22.692 15.473-20.307 29.002l65.264 370.13c3.1092 17.633 20.107 29.543 37.74 26.434l212.42-37.457h-86.029l-128.99 22.744c-9.6824 1.7073-18.726-4.632-20.434-14.314l-2.2656-12.855c-8.4715-4.5276-15.006-12.2-18.055-21.455a36.651 36.651 0 0 1-0.41601-1.3496c-0.30046-1.0434-0.55908-2.1033-0.76953-3.1816a36.651 36.651 0 0 1-0.83985-7.2402v-80.648l-42.92-243.41c-0.98349-5.5776 2.6099-10.71 8.1875-11.693l34.732-6.123v-15.17z"
     color="#000000"
     fill="#fff"
     stroke-width="3.7642"
     style="-inkscape-stroke:none"
     id="path10" />
  <text
     x="51.069221"
     y="94.059273"
     fill="#ffffff"
     font-family="'DejaVu Sans'"
     font-size="95.53px"
     letter-spacing="0px"
     stroke-width="2.3883"
     word-spacing="0px"
     style="line-height:1.25"
     xml:space="preserve"
     id="text14"><tspan
       x="51.069221"
       y="94.059273"
       fill="#ffffff"
       font-family="Ubuntu"
       stroke-width="2.3883"
       id="tspan12">3</tspan></text>
  <text
     x="40.928833"
     y="28.380465"
     fill="#ffffff"
     font-family="'DejaVu Sans'"
     font-size="26.29px"
     letter-spacing="0px"
     stroke-width=".65724"
     word-spacing="0px"
     style="line-height:1.25"
     xml:space="preserve"
     id="text18"><tspan
       x="40.928833"
       y="28.380465"
       fill="#ffffff"
       font-family="Ubuntu"
       stroke-width=".65724"
       id="tspan16">3</tspan></text>
  <path
     d="m42.881 3.7595c-3.6347 0-6.6234 2.9887-6.6234 6.6234v99.443c-3e-6 4.7375 3.8817 8.6211 8.6192 8.6211h66.164c3.6347 0 6.6234-2.9887 6.6234-6.6234v-99.445c0-4.7375-3.8836-8.6192-8.6211-8.6192zm0 3.9526h66.162c2.6013 0 4.6685 2.0652 4.6685 4.6665v99.445c0 1.4985-1.1722 2.6708-2.6708 2.6708h-66.164c-2.6013 0-4.6665-2.0672-4.6665-4.6685v-99.443c0-1.4985 1.1722-2.6708 2.6708-2.6708z"
     color="#000000"
     fill="#fff"
     stroke-width=".99594"
     style="-inkscape-stroke:none"
     id="path20" />
  <text
     x="98.679749"
     y="112.00816"
     fill="#ffffff"
     font-family="'DejaVu Sans'"
     font-size="26.29px"
     letter-spacing="0px"
     stroke-width=".65724"
     word-spacing="0px"
     style="line-height:1.25"
     xml:space="preserve"
     id="text24"><tspan
       x="98.679749"
       y="112.00816"
       fill="#ffffff"
       font-family="Ubuntu"
       stroke-width=".65724"
       id="tspan22">3</tspan></text>
  <path
     d="m32.337 24.055-1.7087 0.3016c-0.61845 1.0345-1.3407 1.9356-2.1662 2.7041-0.82857 0.75119-1.7012 1.4036-2.6181 1.9568l1.0705 1.6799c0.34116-0.18473 0.68622-0.39657 1.0355-0.63613 0.36655-0.2426 0.70577-0.48936 1.0175-0.74009 0.32899-0.25377 0.62164-0.51005 0.87854-0.76891 0.27416-0.2619 0.49851-0.50599 0.67216-0.73237l2.5744 14.602 0.37725-0.06639v-11.875z"
     fill="#fff"
     id="path26" />
</svg>
