<?xml version="1.0" standalone="no"?>
<!DOCTYPE svg PUBLIC "-//W3C//DTD SVG 20010904//EN"
 "http://www.w3.org/TR/2001/REC-SVG-20010904/DTD/svg10.dtd">
<svg version="1.0" xmlns="http://www.w3.org/2000/svg"
 width="700.000000pt" height="700.000000pt" viewBox="0 0 700.000000 700.000000"
 preserveAspectRatio="xMidYMid meet">
<metadata>
Created by potrace 1.14, written by Peter Selinger 2001-2017
</metadata>
<g transform="translate(0.000000,700.000000) scale(0.100000,-0.100000)"
fill="#000000" stroke="none">
<path d="M1982 6980 c-74 -26 -140 -77 -185 -140 -59 -85 -67 -126 -67 -346
l0 -193 -52 -10 c-29 -6 -182 -33 -340 -61 -157 -28 -305 -57 -327 -65 -142
-50 -240 -190 -241 -342 0 -52 136 -841 475 -2765 458 -2598 476 -2695 510
-2766 81 -171 271 -292 459 -292 50 0 3516 602 3691 641 89 20 162 67 233 149
72 83 107 150 122 231 7 36 9 994 8 2804 l-3 2750 -23 66 c-43 130 -139 242
-254 300 -124 63 8 59 -2063 59 -1834 -1 -1892 -1 -1943 -20z m3838 -221 c135
-65 226 -185 250 -329 7 -45 10 -860 8 -2675 l-3 -2610 -26 -56 c-37 -79 -90
-133 -167 -171 l-67 -33 -1760 -3 c-1557 -2 -1768 -1 -1830 13 -157 34 -279
146 -327 298 -17 56 -18 172 -18 2698 l0 2638 22 58 c28 77 112 162 188 191
l55 21 1800 -2 1800 -2 75 -36z m-4090 -759 c0 -95 -1 -100 -22 -105 -13 -3
-126 -23 -253 -45 -126 -23 -240 -48 -253 -56 -33 -21 -62 -74 -62 -111 0 -17
133 -784 295 -1704 l295 -1673 -2 -559 -3 -558 -394 2234 c-319 1811 -393
2246 -388 2290 11 110 85 215 188 268 29 14 132 37 309 69 146 26 271 48 278
49 9 1 12 -25 12 -99z m-56 -277 c51 -251 56 -306 56 -612 0 -194 -4 -301 -10
-301 -5 0 -10 3 -10 8 0 9 -117 675 -126 715 l-6 28 -41 -38 c-23 -21 -64 -54
-90 -72 -52 -35 -59 -34 -89 17 l-17 29 72 55 c40 30 95 84 122 120 48 63 63
74 112 77 16 1 23 -6 27 -26z m173 -4828 c22 -28 65 -68 97 -90 31 -21 59 -48
61 -59 2 -12 11 -58 19 -103 8 -45 22 -98 32 -118 34 -73 131 -135 210 -135
16 0 425 70 910 155 l881 155 557 -2 557 -3 -1438 -253 c-791 -139 -1453 -253
-1472 -253 -46 1 -146 28 -195 53 -87 45 -179 152 -211 249 -12 37 -105 536
-105 565 0 5 13 -18 29 -51 15 -33 46 -83 68 -110z"/>
<path d="M2144 6581 c-18 -11 -39 -30 -48 -42 -15 -21 -16 -247 -16 -2649 l0
-2626 26 -52 c31 -63 89 -107 158 -122 36 -8 557 -10 1788 -8 l1737 3 28 21
c15 11 36 36 46 55 16 32 17 174 15 2649 l-3 2615 -22 40 c-12 22 -36 54 -55
72 -71 68 76 63 -1865 63 -1713 0 -1759 -1 -1789 -19z m461 -118 c83 -44 125
-114 125 -208 0 -85 -30 -137 -114 -198 -18 -13 -16 -16 29 -38 84 -42 129
-121 128 -224 -1 -131 -67 -217 -196 -257 -84 -25 -240 -22 -328 6 l-56 19 10
48 c11 54 15 56 78 33 27 -10 79 -17 134 -17 77 -1 97 2 140 23 114 57 128
217 25 288 -37 25 -79 37 -162 47 l-58 6 0 44 0 43 65 7 c116 12 185 70 185
155 0 146 -178 193 -350 93 -3 -2 -16 17 -28 42 l-22 45 25 16 c86 56 286 71
370 27z m1525 -849 c375 -63 624 -262 723 -580 72 -228 53 -478 -50 -663 -66
-118 -242 -280 -381 -350 -24 -12 -42 -24 -40 -26 1 -2 39 -17 83 -34 288
-111 474 -323 561 -641 25 -93 26 -334 1 -450 -61 -280 -216 -488 -467 -627
-307 -170 -774 -219 -1212 -127 -134 28 -284 70 -374 105 l-61 24 23 105 c13
58 33 146 44 196 l21 91 128 -48 c71 -27 163 -57 205 -68 158 -42 376 -58 563
-42 250 22 389 75 508 194 118 119 168 249 169 437 0 181 -42 295 -152 412
-152 161 -370 235 -744 254 l-148 7 0 183 0 184 138 0 c469 0 730 178 758 516
18 216 -81 410 -255 498 -155 79 -408 95 -631 39 -79 -19 -217 -78 -312 -133
-38 -22 -72 -40 -74 -40 -5 0 -176 341 -172 345 2 1 40 23 85 48 186 106 424
182 648 208 94 10 298 2 415 -17z m1467 -3477 c58 -30 89 -68 109 -134 17 -56
17 -85 3 -138 -11 -38 -69 -106 -114 -131 -19 -11 -19 -13 10 -24 158 -62 207
-292 88 -415 -93 -96 -295 -126 -465 -69 -53 17 -53 17 -37 78 l11 43 48 -18
c109 -41 260 -33 320 18 43 36 60 74 60 136 0 104 -72 165 -208 176 l-77 6 -3
48 -3 47 35 0 c70 0 138 21 175 55 35 32 36 36 36 103 0 56 -4 74 -20 92 -56
61 -168 73 -268 28 l-57 -27 -20 39 c-11 22 -20 43 -20 48 0 10 78 47 130 61
19 6 76 9 125 7 74 -2 99 -7 142 -29z"/>
</g>
</svg>
