<?xml version="1.0" standalone="no"?>
<!DOCTYPE svg PUBLIC "-//W3C//DTD SVG 20010904//EN"
 "http://www.w3.org/TR/2001/REC-SVG-20010904/DTD/svg10.dtd">
<svg version="1.0" xmlns="http://www.w3.org/2000/svg"
 width="700.000000pt" height="700.000000pt" viewBox="0 0 700.000000 700.000000"
 preserveAspectRatio="xMidYMid meet">
<metadata>
Created by potrace 1.14, written by Peter Selinger 2001-2017
</metadata>
<g transform="translate(0.000000,700.000000) scale(0.100000,-0.100000)"
fill="#000000" stroke="none">
<path d="M1998 6980 c-72 -22 -116 -50 -166 -104 -86 -93 -102 -158 -102 -406
0 -180 0 -180 -22 -181 -13 0 -32 -2 -43 -5 -11 -2 -36 -6 -55 -9 -19 -3 -46
-7 -60 -10 -50 -11 -76 -15 -135 -25 -33 -5 -69 -12 -80 -14 -11 -2 -40 -7
-65 -11 -25 -4 -54 -9 -65 -11 -11 -3 -36 -7 -55 -10 -136 -22 -209 -54 -272
-122 -111 -119 -125 -200 -79 -467 18 -99 33 -187 36 -195 2 -8 6 -33 9 -55 4
-22 8 -51 11 -65 2 -14 6 -36 9 -50 2 -14 13 -77 25 -140 28 -159 30 -167 41
-235 5 -33 12 -71 15 -85 19 -109 59 -330 71 -400 8 -47 17 -96 19 -110 5 -25
31 -173 39 -220 5 -24 68 -384 81 -460 3 -19 13 -71 21 -115 7 -44 25 -147 39
-229 14 -82 28 -152 29 -155 2 -3 7 -26 10 -51 5 -38 45 -273 61 -360 3 -14
14 -77 25 -140 26 -147 28 -159 46 -255 8 -44 17 -96 20 -115 3 -19 21 -123
40 -230 19 -107 36 -208 39 -225 3 -16 7 -41 10 -55 3 -14 8 -43 11 -65 3 -22
7 -46 10 -54 3 -8 7 -30 10 -50 3 -20 11 -70 19 -111 8 -41 23 -129 34 -195
12 -66 23 -131 26 -145 3 -14 7 -38 10 -55 2 -16 8 -52 13 -80 6 -27 13 -70
17 -95 3 -25 8 -52 10 -60 2 -8 7 -31 10 -50 57 -370 96 -468 228 -578 130
-108 322 -145 497 -97 8 2 35 7 60 10 25 4 90 15 145 25 100 19 111 21 195 35
25 4 54 9 65 12 11 2 36 6 55 9 19 3 55 9 80 14 25 5 72 14 105 19 33 6 74 13
90 15 17 3 48 8 70 11 22 4 56 10 75 15 19 5 53 11 75 14 22 3 49 7 60 9 11 3
40 8 65 12 25 4 54 9 65 11 11 3 85 16 165 30 80 14 154 27 165 28 11 2 38 7
60 11 22 4 74 13 115 21 96 18 127 23 170 29 19 3 55 10 80 15 42 9 114 21
200 35 19 3 58 10 85 15 28 5 64 12 80 15 17 3 39 7 50 9 11 2 54 9 95 15 41
7 95 16 120 21 49 10 85 17 140 26 19 3 44 7 55 9 19 3 227 41 270 49 11 2 40
7 65 11 25 4 52 9 60 10 34 6 105 19 110 20 3 0 28 5 55 10 28 5 52 9 55 10 3
0 27 4 53 9 82 13 88 15 152 44 48 23 77 47 133 110 76 87 103 130 122 202 10
35 13 645 13 2795 0 2597 -1 2755 -17 2823 -41 166 -168 303 -337 364 l-64 22
-1896 2 c-1770 1 -1899 0 -1951 -16z"/>
</g>
</svg>
