<?xml version="1.0" standalone="no"?>
<!DOCTYPE svg PUBLIC "-//W3C//DTD SVG 20010904//EN"
 "http://www.w3.org/TR/2001/REC-SVG-20010904/DTD/svg10.dtd">
<svg version="1.0" xmlns="http://www.w3.org/2000/svg"
 width="700.000000pt" height="700.000000pt" viewBox="0 0 700.000000 700.000000"
 preserveAspectRatio="xMidYMid meet">
<metadata>
Created by potrace 1.14, written by Peter Selinger 2001-2017
</metadata>
<g transform="translate(0.000000,700.000000) scale(0.100000,-0.100000)"
fill="#000000" stroke="none">
<path d="M2010 6984 c-112 -30 -210 -116 -251 -222 -20 -50 -23 -81 -28 -262
l-6 -205 -348 -61 c-390 -69 -423 -80 -501 -164 -63 -67 -98 -145 -103 -229
-4 -55 76 -519 461 -2706 257 -1452 473 -2673 481 -2714 38 -185 181 -345 357
-396 120 -35 167 -30 1033 124 440 78 1258 223 1818 321 1162 205 1086 186
1201 312 37 40 81 102 99 138 l32 65 3 2780 c1 1957 -1 2795 -9 2832 -37 183
-206 348 -396 388 -103 22 -3761 21 -3843 -1z m3712 -185 c120 -25 246 -116
300 -216 63 -115 58 103 56 -2808 l-3 -2650 -34 -63 c-39 -71 -78 -110 -154
-150 l-52 -27 -1816 0 -1815 0 -75 37 c-121 60 -212 169 -244 294 -13 54 -15
346 -13 2695 l3 2634 26 55 c47 101 126 169 228 196 63 17 3513 20 3593 3z
m-3994 -904 c-2 -2 -117 -23 -257 -48 -233 -42 -256 -48 -282 -73 -16 -15 -33
-43 -38 -62 -8 -27 44 -341 285 -1702 l294 -1668 0 -574 c0 -630 2 -657 60
-775 37 -74 116 -164 175 -199 l42 -24 18 -106 c24 -138 57 -196 134 -236 39
-21 68 -28 107 -28 30 0 438 69 907 153 l852 152 615 2 c338 1 611 0 605 -3
-5 -2 -662 -119 -1460 -260 -1635 -288 -1564 -279 -1695 -218 -93 44 -172 120
-215 207 -34 70 -47 138 -491 2652 -352 1999 -453 2590 -448 2625 17 119 95
231 195 277 29 14 150 40 320 70 l274 48 3 -104 c1 -57 1 -105 0 -106z m-26
-290 c25 -142 27 -167 27 -473 1 -251 -2 -323 -11 -320 -8 3 -36 141 -77 370
l-64 366 -63 -52 c-34 -28 -76 -59 -93 -69 l-30 -18 -25 38 c-15 21 -26 43
-26 49 0 6 18 23 40 38 61 40 117 93 166 157 42 55 66 69 114 65 11 -1 22 -39
42 -151z"/>
<path d="M2160 6582 c-19 -9 -45 -32 -57 -51 l-23 -34 0 -2606 c1 -2151 3
-2613 14 -2644 22 -60 65 -107 121 -133 l52 -24 1766 2 1767 3 32 33 33 32 3
2627 2 2628 -26 52 c-14 29 -41 65 -59 79 -75 57 19 54 -1859 54 -1628 0
-1733 -1 -1766 -18z m435 -111 c27 -12 60 -32 73 -44 61 -57 88 -173 58 -251
-17 -44 -93 -126 -118 -126 -7 0 5 -9 27 -19 51 -23 118 -98 133 -149 17 -55
15 -130 -5 -187 -50 -148 -258 -221 -473 -166 -46 11 -88 25 -92 29 -9 9 -1
81 12 101 5 10 25 7 79 -9 92 -28 218 -25 272 6 54 32 79 77 79 144 0 106 -68
163 -210 178 l-75 7 0 50 0 50 67 7 c125 12 178 58 178 155 0 62 -30 105 -86
123 -51 17 -150 8 -203 -18 -25 -12 -48 -22 -53 -22 -8 0 -48 73 -48 89 0 14
68 48 133 66 73 21 189 14 252 -14z m1504 -847 c402 -59 666 -268 766 -609 55
-185 44 -430 -25 -583 -73 -160 -235 -323 -409 -412 l-44 -22 70 -28 c174 -67
306 -163 402 -291 74 -97 111 -169 151 -287 78 -235 53 -527 -64 -767 -129
-262 -405 -450 -771 -524 -228 -46 -481 -50 -725 -10 -186 31 -502 119 -533
149 -5 4 11 96 35 204 40 182 45 197 63 192 11 -2 76 -25 143 -51 210 -78 360
-105 592 -105 279 0 488 53 609 154 139 116 211 282 211 483 -1 316 -199 536
-552 612 -124 26 -264 41 -393 41 l-105 0 0 190 0 190 105 0 c216 0 403 36
530 103 83 44 178 140 215 218 42 88 53 156 48 279 -6 123 -28 192 -89 272
-112 151 -292 217 -559 205 -82 -4 -167 -14 -216 -26 -74 -18 -233 -82 -287
-114 -12 -8 -43 -26 -69 -41 l-48 -27 -89 179 -89 178 101 57 c164 91 394 168
583 196 100 14 329 12 443 -5z m1471 -3469 c94 -34 149 -116 150 -224 0 -77
-29 -136 -90 -180 l-38 -27 46 -24 c110 -59 158 -211 107 -336 -58 -141 -264
-209 -475 -155 -46 11 -87 24 -91 29 -7 6 8 101 16 110 2 2 35 -7 75 -19 97
-29 227 -25 284 11 65 40 93 131 62 203 -28 67 -93 103 -205 113 l-71 7 0 53
0 54 58 0 c68 0 134 29 166 73 29 39 28 115 0 154 -51 69 -168 83 -272 32
l-53 -26 -25 49 c-14 28 -24 51 -22 53 14 12 98 48 141 60 63 18 173 13 237
-10z"/>
</g>
</svg>
